# xmcd
#
# Track frame offsets: 
#        150
#        21672
#        45750
#        67348
#        90733
#        106278
#        123611
#        142779
#        156801
#        168378
#        188467
#        197041
#        217908
#
# Disc length: 3180 seconds
#
# Revision: 1
# Processed by: cddbd v1.5.2PL0 Copyright (c) Steve Scherf et al.
# Submitted via: ExactAudioCopy v0.99pb5
#
DISCID=af0c6a0d
DTITLE=Peder af Ugglas - Autumn Shuffle
DYEAR=2004
DGENRE=Blues
TTITLE0=Harvest Song
TTITLE1=Wino's Dance
TTITLE2=Autumn Shuffle
TTITLE3=Central South
TTITLE4=Passion
TTITLE5=Last Call
TTITLE6=Far Away
TTITLE7=Dawn
TTITLE8=I sold My Boat
TTITLE9=Stockholm
TTITLE10=Passing By
TTITLE11=Strife Within
TTITLE12=A Hymn
EXTD=YEAR: 2004
EXTT0=
EXTT1=
EXTT2=
EXTT3=
EXTT4=
EXTT5=
EXTT6=
EXTT7=
EXTT8=
EXTT9=
EXTT10=
EXTT11=
EXTT12=
PLAYORDER=
